<svg xmlns="http://www.w3.org/2000/svg" viewBox="0 0 1674 2048"><path d="M827 3h6l247 240h321l13 13v321l240 247v6q-240 239-240 259v322l-13 12h-334l-240 234h-6l-240-234H246l-12-12v-335L0 836v-6l234-240V256l12-13h335L827 3zM619 325H328v290L114 836l214 215v278h278l221 214h6l221-214h278v-278l215-221-215-215V325h-290L833 123h-6L619 325zm195-6h32l19 12h69q228 70 335 253 44 85 50 132l7 7v56l12 19v57l-12 19v70q-39 126-133 240-150 128-290 145l-7 6H764q-10-13-70-13 0-12-37-12-109-58-184-120-138-157-138-297l-13-12V773q13-10 13-69l44-108q51-91 183-195 57-36 164-70h69l19-12zM404 868q13 17 25 107 79 150 164 202 122 70 190 70l6 6h82q10-13 70-13 0-10 44-19 141-61 214-189l45-114V748l-32-88q-57-139-177-196-2-10-126-51H751q-179 57-233 133-54 61-70 107l-6 7-32 126-6 6v76z"/></svg>