<svg xmlns="http://www.w3.org/2000/svg" viewBox="0 0 2335 2048"><path d="M2011 20l8 8v143q-56 176-175 310 0 15-56 71l8 8h8q9-22 96-79 49-70 143-112 183-150 183-190 12 0 87-112l8 8v80q-14 49-191 302l-270 278h127q16-16 72-16 0-14 79-32l159-111h8l16 16v40q-56 129-207 174-180 80-222 80v16q229-56 326-103h16v7q0 117-326 207-9 26-128 48 5 24 64 24h64q21-16 135-32l16-16h8l16 16q-172 143-231 143l-48 16-8 8h-111l24 24h103l24 16h72l24-16h39l16 16q-28 52-111 87h-48l-40 8-47-8h-32l-24 16h-48v16q36 87 120 87l23 32-7 8h-64l-159-87v7l119 120-8 8h-32q-89-34-159-88v8q59 58 136 104l-8 7h-80l-151-95v32l72 95v16h-16l-159-151v8l71 72v23q-25 72-39 72h-8l-48-40q0 40-24 40l-103-103h-8l-103 95h-8l-32-48v-31h16v-16l-96 87h-8q-22 0-31-71 0-21 71-96-16 0-16-32-144 143-167 143h-8l-16-15 96-159v-16l-215 159h-55l-16-16q119-74 175-143v-16h-16q-110 87-223 87l-16-24v-8q0-12 72-39 0-12 71-48l16-32v-16h-16l-151 64h-87l-16-16v-8q10-26 159-79l16-24v-8l-8 8h-8l-24-16H294l-151-48-24-48 8-8h80l24 16h39q139-47 199-47v-8q-197 0-413-151l-16-40v-8l16-16 63 32h88l24 16h95l56 8 7-8v-8q-122 0-317-135L8 695v-8l16-16h8q247 120 365 120 0-11-143-64Q83 619 32 568L0 528v-16l16-16h32q28 32 71 32 3 15 135 72 17 19 96 32l8 8h47q-1-17-79-64Q50 329 8 218v-24l16-15h8q25 0 326 270l111 63h32q-96-133-96-151-46-109-79-143V115l16-16q43 45 87 143 130 183 199 207h24l24-24V306l-48-104v-8l16-15h24q95 64 95 190l16 16v88l24 95 8 8q41 145 87 159h16q0-24 32-72l-48-47v-8q0-15 64-48v-56q-35 0-48-31v-8l32-32h71l24 16h104l79 24q88 93 88 159l7 8v103l24 24h8l24-16h8l24 16h8q79-32 79-127l104-390q13 0 39-103l8-8q0-24 16-24l24 48v87q-48 134-56 207l-7 8v8l15 16q297-291 326-398 16 0 16-48l32-23zm-151 882l16 16 8-8v-8h-24zM699 1347l-7 8v16h7l16-16-8-8h-8z"/></svg>