<svg xmlns="http://www.w3.org/2000/svg" viewBox="0 0 1817 2048"><path d="M586 10l14 2 14-2q8 0 31 10 13 0 16 5h51l15 1 11-1h2v3h-5l3 3h5l8-1 3 3-1 1v2q0 3 11 3l-2 2v2q0 3 12 3 0 4 11 6l7-1 1 1v2l-1 2 1 1h2l8-1q14 22 26 22l8-1 2 1-2 2v3q10 0 10 8h15l11 15q3 0 12-23 4 0 4-5 10 0 10-6h10l5-5h-3v-2q26 0 26-4h-4v-4h2l7 2 11-2h20l1 2 2-2 6 2 23-2 2 2h1l-1 2v3l5 1 8-1v3h-3l4 5h10q0 6 10 6 0 5 6 5 22 23 22 30h6l-1 8q0 8 11 8 0 10 6 10l2-2 2 2v5l1 24h2v-6h3v1l-1 18 1 23-1 10 1 13v8h-1l-2-2h-2l-3 7 2 1v5l-25 25h-1v11q-7 0-7 5-10 3-10 10h-9l-7 9v2l2 5-2 2h-3l1-2v-3h-1q-13 6-13 11l-8 2-2 1v2l2 7-7 4h-1v-3q4 0 4-3v-2h-1l-10 8-2-1v-2l2-5h-2q-7 0-14-21v-6q0-12 5-13h11q11 0 34-25 22-12 33-52 3-6 3-18v-5q-2-21-33-57-38-21-65-21h-21q-21 0-42 8l-12-1q-13 5-13 14 0 7 17 20 36 61 66 125 0 5 10 12l2 19q-5 8-5 29v64l-2 10 2 8v23l-3 3-2-2q-1 12-3 12l1 1v33h-3v-7h-1l-4 15 2 2v1h-2l-5-1v1q-6 14-6 22l-2 1h-1l-2-1-2 1v12q-8 0-11 9-2 0-5 7h-3v10h-2l-1-2h-2q-1 10-36 24l-47 33q-5 0-16 11-26 22-149 57l-9 4h-10q-18-5-132-10l-108-41q-18-28-50-39-36-8-36-18h-2l-1 2h-2l-2-2v-10q-4 0-6-8-5 0-5-5-8 0-16-16-4 0-4-8l-16-18-1 2h-2l-3-4 1-6-1-10h-2v5h-3v-5l1-8q0-15-6-15v-11q-7-4-7-13h-3l-2 1h-1l-2-4 2-2v-2l-3-9h-2v3h-3v-21l1-25-1-6 1-30v-3q0-7-6-11 0-8-7-8 0-5-6-5-2-7-10-7l-8 2q0-5-15-15 0-3-24-24h-2v1l2 2v2h-2l-1-2h-2l2-8v-2q-7 0-7-6-7 0-7-8l-8-4 2-8v-2l-2-8h-1v5h-4v-1l2-7-2-16v-74l2-1-2-2v-5l2-1v-2l2 2h3q0-8 13-20 0-6 5-6l5-10q4 0 5-7h3v-5l-2 2h-1v-2l9-9 10 1 2-1v-2l-2-2 2-1h10q0-5 8-5l3-3-2-5h2l7 1 14-3v-1h-8v-4h13l13 2 12-2 6 2 15-2h22v4h-14v1l11 2 2-2h1q8 0 14 10l1-2h2l1 2h2l-2 2v3l5 1 15-1v3h-5v2q21 3 21 22l2 2h2l13-15h3l6 5q6-11 12-11l1-8 10 1q13-5 20-17v-2h-4l2-2v-1l8 1 3-3-1-2 1-1 9 1 26-16-2-5h2l6 2q13-2 13-5h-6v-3h18l14 1 17-1h19q3 0 3-5h13q6 0 12-7l14-3zM228 61v1h3v-1h-3zm-49 97q0 88 38 118 0 9 5 9h3l6-1 17 6h1q16-22 25-45 10-8 22-36 0-4 20-30l28-40 3-18q0-12-83-15h-28q-31 0-55 36l-2 16zm46-34h57q42 1 42 7v3q0 5-39 60l-31 52q0 12-13 23-14 0-34-34-12-33-12-82 0-9 28-27l2-2zm726 3h15q65 11 65 30 10 4 20 34v3q0 35-39 65l-17 13h-14q-2 0-13-31-4 0-23-42-11-14-36-60v-4q21-8 42-8zM754 271l4 37h1v-3h3v11l4 4h6l8-2v-2l-1-1v-2l1-2 13 2q5 0 12-13l-2-15h2l1 2h2l3-11-11-7 2-2v-3l-5-1-18 1q0-8-8-8-5 0-10 13l-7 2zm-304 34v15h-4v-4h-1l-4 12v5l4 13 1-2h4v2l-2 11q8 8 15 8l6-6h16q0-5 7-10l-2-10h2l2 2h1l3-12q0-5-6-5-5-21-16-21t-17-5h-3l-6 7zm19 1h5v2h-5v-2zm114 14l2 1q-15 3-21 10l1 2v1l-1 2h-5l-2-2q-5 0-5 8l-5 2-5-2-19 18-15 18 2 5-10 7 2 1v7q-6 0-8 3l1 11v12h-3v-3h-2l-3 8 2 9h-2l2 2v3h-4v-6q-3 0-6 29-5 0-5 25l8 29q7 0 7 15 0 8 3 8l2-2 1 2v5l-1 1q2 7 4 7l2-2 2 2-2 8 5 6 2-1q0 3 5 3l1 2v1l-1 2q8 1 17 16l7 7 8-2h5l2 2h1l-1 1v4h5l6-2q10 2 10 5l-2 2 12 3-2 1v2q16 10 42 10l12-2 21 2h8l8-2v2l2-2h14l2 2 15-8 3-7q8 0 8-6l8-2 7 2 10-2v-2h-5v-1l8-2h1l2 2 18-18q10 0 10-10l6-3 2 1 3-4v-2l-1-8q11 0 21-26l-2-7 2-1h1l2 1q3-6 3-18v-34q0-3 7-3l1-5-4-44h-2v8h-3v-5l1-15-3-8-5 2v-8l2-2q-5-12-25-32l-1 1q0-13-8-13 0-6-4-6h-5l-8 1q0-6-5-6v-2l-1 2h-5q-3 0-5-8-5 0-8-7l-2 2h-16v-3h3v-2l-21-3-18 1h-42l-2-1-2 1h-21l-6-1q-20 1-20 5zm83 24l15 2 8-2 2 2v1l-2 2 2 1h5v-1l-2-2v-1h2l1 1h2l-2 8v2l17 13 1-2h2q3 0 8 10h2l1-1 2 1v38l-3 3-2-2-2 2v2l2 6q0 5-8 5 0 10-10 10v1l2 2-2 2h-11q0 6-5 6l-7-2q-8 7-14 7 0 3-5 3v2h3v3h-7l-8-1-10 1h-11v-3h5v-2l-13-3-7 2-1-7h-2l-8 2-3-5 1-2-16-10q0-4-6-4v-4l1-1-3-12h-2v5h-1l-2-8v-15q8 0 8-6l-1-7 1-1h2l1 1q0-6 18-19l-1-2q8 0 27-16l-1-2v-1l1-2h36zm-150 29v4h-3l3-4zm-283 33v5h2v-5h-2zm0 11v12h2l1-5-1-7h-2zm414 44v2h13l-3-3h-2l-8 1zm124 7h3q0 4 11 14v10l-5 7v9q-6 0-6 7-7 0-8 10h-10q0 4-21 21 0 5-4 5h-9v6h-7l-1-1-9 3 2 2v3h-5l-1-2q-5 0-5 8h-4v2l-5-2-17 2 1 2v1h-1l-35 2v-2l-1-5-7 2-10-2v-3h4v-1l-12-4-1 2h-2v-2l2-1v-2l-7-3-16 1v-3h5v-2q-10 0-10-3l-2 2h-5l-3-3 2-2-12-2 2-1v-2l-3-3-3 3h-2l-2-5h4v-5q-7 0-7-6h-8q-3 0-5-7l-8 2-3-3v-2h3v-5l-2 2h-1l-2-2v-26l10-10h11v2l-2 2v1l7 3 10-1q0 8 8 8 0 4 6 10v1h12v7h1l9-2 3 3-2 2v3l13 9 7-2 5 2v1h-5l3 3 2-1 8 1h44l8-1v-2h-5v-3h2l18 2q4-9 13-9v-1l-2-2v-2q15 0 15-8h5l1 2q7-2 7-5l-2-2 5-3 5 2 8-10q0-3 8-3 1-12 7-12h1l-1 2v2h5v-5zm-238 10v1h3v-1h-3zm-7 21v3h2v-3h-2zm98 23h5v1h-5v-1zm290 76l2 2h1l-1 1v4q12 1 22 19h8l4 3-2 2 3 3 2-1h2q3 0 3 5l2 1h3v-3l6 5-1 1v2q7 8 19 8 0 7 8 7 5 14 15 14l2 2q0 3 5 3l6 4v3h8q20 21 23 21l5-2v2l-2 5h2q6 0 26 21h3q0 5 3 5h2v-3l7 5-2 1v2q0 3 8 5 0 5 5 5 0 3 10 6v5h10v2l-2 5h2q6 0 39 35l6 5 2-1h5q0 8 8 8 0 5 6 5l7 9q0 4 6 4l4 6 8-1 6 9h-3v2q7 5 7 10h8l1 1h2l-2 2v2q0 2 7 5l2-2 4 6h-3v2q7 12 23 23v1l-2 2h-1l1 5 2-2h2l1 5-1 5 1 10v3l-1 7 1 11v42l-1 2 1 2v5l-1 1 1 2v3q0 6-6 12 0 6-5 6h-2v10h-1l-5-2v2l-2 5 2 8h-2l-2-2h-1l-3 5 1 11h-6v7h3l-5 5v-3h-2q-5 5-11 5l-3 3 1 5h-9q0 6-7 6v5h3l-5 5v-3h-4l-4 3 2 2-10 3-8-2h-5l-19 2-25-2h-39l-10-1-8 1h-2q0-8-6-8 0-3-10-13l-1 2h-14v-4h5v-1q-10 0-24-18l-15-5 2-2v-3q-6 0-15-8-4 0-24-20l-2 2h-3l-2-2h-1l1-1v-2q-24-17-24-28 0-14-20-34-13-28-13-86l-21-51q-6-15-16-57-16-24-30-24-12 0-17 23l11 40q11 22 26 67 7 41 16 64v24q13 65 20 65 0 15 11 28v16l-1 2q3 6 3 18h2v-8h3v8l-2 10q0 5 8 5v9h10v2h-3v5l3 3 2-1 3 9-2 8 2 7h2v-3h3v11q-23 30-52 44-11 7-28 34l-36 35q-8 7-13 32-21 18-37 77l-2 44v11q0 12-5 13h-5l-3-3 2-2q-5 0-10-13l-2 2h-3l2-8q-3 0-10-13l-5 1v-10q-7 0-7-14l-1-2h-2v7h-3v-2l2-2-2-1v-2l2-6-13-15q0-7-4-7l-5 2v-2l2-6-3-10h-2v5h-3v-2l2-14q-2-7-22-23l-1-11h-2v4h-3v-1l1-15q-7-16-21-16 0-4-6-5 0-7-7-7 0-6-11-6 0-4-15-8l-3-3-2 1h-1l1 2v3l-6-2-7 2h-1l-2-2-15 10 2 8-2 2v2l-1-2h-4v2l2 6q-2 8-8 15v3h3v2l-10 9h-1q0-4-5-4l-10 1q-16-2-47-44-74-36-109-36l-67-3h-36l-3-3v-3h3v3l3-3v-12l-1-11h-2v6h-3v-32h3v5h2q0-9 14-20l12-36v-55q8-25 11-75 3 0 16-38 6 0 9-26l-5-9q5-36 11-36 5-35 15-49 0-7 11-12 0-8 12-37 0-13-13-13-21 3-48 46-14 58-27 84-10 54-22 83-2 0-8 62v28q-4 21-8 21l2 8q-8 29-20 43 0 8-23 32l-9 4 1 1v3h-3l-2-1-1 1q-4 0-5 7-7 0-7 6h-26l-8-1-10 1h-24l-16-1-15 1h-7v4q-13-3-13-10h-1l-8 2v-2l1-5-27-28q-5 0-5-6-7 0-7-7h-3q-3-8-10-8v-16h-3v10h-3l1-25h-1q-5 0-8-11H5l-2 1-1-1v-3l1-2-3-16h2l-2-2v-2l2-1-2-5q0-24 3-36l-1-7 1-1h2l2 1 3-13-2-1v-5l2-2v-1l1 1h4q0-6 8-11l-2-2v-8h7v-6h-4l7-7 2 2q9-11 9-17l2-1q4 0 7-12h3q0-4 14-13l5-8q0-10 7-10v-9l3-4 2 2 16-20v-1l-2-5h2q7 0 8-10 4 0 18-14l-2-2v-5l2-2v-1l2 1h3q0-4 26-32v-2h-3l5-5 5 2v-2q0-5 8-11 7-12 11-12v-8l2-1v-2l1 2h2l6-5-1-2v-3h10q0-10 3-10l2 2q7-12 30-38 15-8 33-32h3v-10q9 0 12-10 11-5 11-13l8 2q5 0 12-7l13-1q39 10 52 29 0 12 41 26 79 31 99 31l109 7q0 3 8 3h15q12 0 107-33 53-16 79-42 10-4 55-36l18-5zm-645 57h1l-3 3h-1l3-3zm950 186v1l3 4h1v-2l-3-3h-1zm-154 148v3q0 12 13 41 15 46 46 46h70q9 0 26-22 23-8 23-43 4 0 8-33v-34q-6-26-29-43-7-15-33-24h-45q-29 0-36 24l-28 31q-14 33-15 54zm114-83q15 0 27 21 19 11 19 26v25l-10 44q0 11-19 19 0 7-8 12h-62q-17 0-26-41-9-11-9-18v-2q0-37 27-57 18-29 24-29h37zM24 1056v15q19 57 31 57 0 8 57 34h48q37-4 37-23 15-25 15-47v-23q0-15-10-28 0-9-24-47-25-23-49-23 0-2-43-3-27 0-49 49-9 0-13 39zm64-62q77 0 77 36 9 4 9 19 0 5 12 17v22q0 29-18 43l-18 5h-28q-12 0-44-23 0-5-14-13l-13-36v-5q0-18 14-37 0-13 23-28zm1064 107h16v2l-8 2-8-2v-2zm-212 40v3h2v-3h-2zm111 0h32q9 0 15 4h28l1 2 10-3 3 3-1 2v3h6v-3l7 5-2 5q5 0 12 8l8-2q0 8 5 8l8-1 1 1-1 2v1l5 5 1-1h2l3 3-2 8v2q8 0 10 6h-3v2q12 23 16 26l12 8-2 8 2 28h1v-3h4v16l-2 2 3 6-1 11v28l4 7v14q-5 0-6 12l2 18v8h-4v-5h-1l-4 28 2 6v7l-3 3v-3h-3q0 4-12 19l-3 7 2 10v4h-4v-4l-3 3v16q-9 0-21 20l1 4h-1q-5 0-5 7-26 21-26 24v4h3l-5 6h-1l1-1v-4h-1q-22 20-26 20v2l1 1v2l-1 1h-2l-5-1q-13 1-13 5h3v3h-1l-10-2q-8 7-15 7 0 7-21 10v1h11v3h-9l-9 2-1-2v-1l-8 1h-92l-9-1-8 1h-4l-3-3 2-1-23-17-12 2-4-2v-1h6q0-4-13-5l-6 1q0-5-35-34l-1-8h-2l-2 2h-1l-2-2 2-8q-7-13-7-20-6 0-8-9l-8-4 2-8-2-21h-2v8h-3v-3l2-18-2-16 2-28-2-7q0-26 16-55l2 2h2q6-10 6-23 7 0 20-38 15-9 63-68 22-7 54-44 4-5 15-5l3-5h-3v-3l5-2 6 2 3-3-1-2 1-2h48q8 0 8-4zm-1007 1h2l3 3v2l-5-5zm813 297q8 52 29 73 8 8 28 15 9 16 52 16 0 4 46 6h11l34-8 41-24 21-20q0-4 20-19l36-60 6-46q4 0 5-20v-3q-7-53-16-78-17-24-43-34-22-30-78-30h-10q-42 0-57 18-30 15-84 67l-20 31q-19 45-19 59l-2 57zm-564-222h25q82 3 114 12 70 28 70 42 9 13 26 24 0 6 13 10 4 4 6 21 5 0 5 7 15 12 17 23h1v-5h3v5l-1 8 3 23h2v-4h3v15l-2 6q8 13 8 27h4v-5h3l-2 16v6l2 12h-2l-5-2-1 2v11l1 8h-1l-5-1v5h-2l2 11v16h-3v-16h-2l-3 29 1 9-1 1h-2l-1-1-17 21v3l2 8-2 2-1-2h-4l-1 5 1 7q0 3-8 3 0 10-5 10l-5-2q0 6-8 6v9l-3 3-2-2q0 10-9 10 0 7-4 7h-8q0 5-16 14l2 5-7 3v-3h-5l-3 3 2 2-2 2h-2l-5-2-24 3v2h6v3l-27-2-52 2-2 5h-11l1-2v-3h-8l-8-2-10 2h-14v-3h8v-2q-25-1-25-3l-1 2h-18q-4 0-4-7-8 0-8-6-6 0-6-7h-12q0-6-5-6-48-50-48-56h-2l-2 2h-1l-2-2v-5l2-1q-2-13-5-13v6h-3v-5l1-10q0-4-8-4l2-12-2-5h-3v4h-3l1-9v-5l-1-8h-4v4h-3v-4l2-8-5-3-2 2-3-4 2-8v-67q0-3-5-3v-13q5 0 5-8v-31l1-23-1-13 1-1h2l1 1q0-4 17-18l6-14-1-7 1-2h2l1 2q1-8 23-24l23-23 16-3v-2h-11v-3h11l9 1 9-1h10q6-7 21-7zm745 16h8q49 0 63 23 43 21 43 46l8 50v2q-7 17-10 54-26 47-42 60-32 36-61 47l-3 4-8-2-19 6h-2q-85-7-85-16 0-3-24-13-17-18-23-59l2-60 13-28h3v-1l-2-7q19-31 33-42 19-20 45-37 1-3 33-20 0-7 28-7zm-833 194q0 58 13 78 16 46 46 75 33 36 65 36h7q82 0 109-13 7-8 26-8 42-36 42-46 21-34 21-70l2-9-8-56q-16-38-36-65-18-25-52-41-13-9-49-18 0-4-16-8h-21q-11 0-43 10-30 0-49 18-19 6-47 41l-10 76zm163-119l23 12q24 0 57 24 16 4 36 43 21 27 21 63l5 21q-5 42-15 57-23 43-50 43-14 19-111 19h-2q-36 0-78-67-21-45-21-65l-2-29q8-69 12-72l21-19q4 0 32-18 13 0 59-12h13zm228 134h4v5h-4v-5zm577 75v3h-3l3-3zm-966 75h2l3 3v2l-5-5z"/></svg>