<svg xmlns="http://www.w3.org/2000/svg" viewBox="0 0 554 2048"><path d="M455 14h32l12 13v107q0 19-25 19v57q0 19-25 19v57q0 19-26 19v57q0 19-25 19v56q-25 17-25 83-25 9-25 18l37 38h95l19 19v26q-25 16-25 50-32 18-32 57-11 0-31 57h-13v32q-55 52-57 88-19 0-19 13v12h133q19 0 19 26h44l13 12v57q0 13-32 13v31q-55 53-57 89-50 34-50 76-33 13-57 82-44 26-44 69-76 59-76 101-38 22-57 83-44 33-44 75l-26 13H25l-12-13v-12l25-32v-69q0-16 25-19v-57l25-32v-69q0-16 26-19v-82q0-16 25-19v-57l25-32v-19q0-12-38-12l-12-26H57l-44-38v-6q25-16 25-51 20-7 38-63h12v-31q0-16 26-19v-32q0-16 25-19v-31q27-26 32-51l-7-38H13L0 696v-63q38-44 51-82 37-18 37-63 83-63 83-107 75-58 75-102 76-58 76-101 38-22 57-82 14 0 76-82zM322 305q0 41-76 113 0 31-75 102 0 42-76 88v19h12v6l7-6h12q19 0 19 25h108l44 38v6q-25 15-25 57-26 0-26 45-31 17-31 56-12 0-32 57h-12v32q-29 29-32 69l6 19h82l19 19v95q0 19-25 19v82q0 19-25 19v38q0 21-32 63l7 19h19l56-95q12 0 32-56 32-17 51-76 31-17 50-76l38-38v-32H259l-44-37v-26q0-16 25-19v-31q57-58 57-95 21 0 25-44l19-7v-31l51-57q0-10-25-19v-13h-89l-13-12v-76q0-16 26-19v-57q0-16 25-19v-57q32-31 32-82l-7-6h-19z"/></svg>