<svg xmlns="http://www.w3.org/2000/svg" viewBox="0 0 1612 2048"><path d="M885 27q80 0 80 81h39l66-40q176 71 265 149l-14 68 27 27 66-13q145 217 145 285l-39 13v55q79 44 79 108v123q0 95-79 136l-14 13v14l53 54q-24 110-171 285l-80-13-13 40 13 14v27q-82 99-264 163l-40-54q-53 0-66 81l-132 14h-13q-145 0-145-68 0-27-67-27-19 54-39 54-165-74-264-163l13-13v-41l-27-27-66 13Q40 1163 40 1086q53-20 53-40l-40-55-13 14H26Q0 952 0 856v-14q0-144 79-177l14-13v-14l-53-54q112-258 171-258l40 13 27-54-14-41Q482 68 568 68l40 40h26l53-81h198zM608 502v680h198V937l27-27h251V774H833l-27-27v-82l27-27h251V502H608z"/></svg>