<svg xmlns="http://www.w3.org/2000/svg" viewBox="0 0 1616 2048"><path d="M927 55q26 0 26 67l13 13h40l53-40q147 38 278 147l-13 67 26 26 67-13q145 207 145 280l-39 14v53q0 27 66 27l13 93v107q0 107-79 107v53l39 54q-24 108-172 280l-66-13-27 40 14 13v27q-46 73-265 160l-53-53q-35 0-53 80l-159 13q-145 0-145-80l-53-13q-20 53-40 53-165-73-265-160l13-14v-40l-26-26-66 13Q40 1166 40 1096q53-20 53-40 0-53-80-53L0 869v-53q0-94 79-134l14-13q0-40-40-40l-13-13v-14q109-253 172-253l13 13h13l40-13v-14l-13-66Q471 95 569 95l40 40h27q26 0 26-67l13-13h252zM424 829v54q0 245 317 307h80q344-43 344-294v-80q0-231-318-294H741q-317 59-317 307zm384-133q158 32 158 160 0 142-185 160-132 0-159-173 0-123 186-147z"/></svg>