<svg xmlns="http://www.w3.org/2000/svg" viewBox="0 0 3424 2048"><path d="M715 69q379 0 622 505 189-505 622-505h47q460 0 638 614l15 108h93V412h32l606 433v36l-622 415-16-18V935h-93q0 353-342 614-145 108-342 108-461 0-638-523h-15q-208 523-622 523h-16q-494 0-668-596L0 917V809Q0 247 591 69h124zM93 791h1167q0-373-420-578l-171-36q-386 0-560 524l-16 90zm1307 0h1150v-18q0-387-466-578l-125-18q-388 0-559 542v72zM93 935q0 252 296 523l280 91q414 0 575-524l16-90H93zm1307 0v18q132 596 575 596 400 0 575-542v-72H1400z"/></svg>