<svg xmlns="http://www.w3.org/2000/svg" viewBox="0 0 1637 2048"><path d="M32 48h1559l32 32v1545l-32 32H32l-32-32V80l32-32zm1334 209v16h32v1159h16V273l-16-16h-32zM225 273v1159h16V273h-16zm450 161v837h273V434H675zm-402 998v16h32v-16h-32zm48 0v16h33v-16h-33zm49 0v16h32v-16h-32zm48 0v16h32v-16h-32zm48 0v16h32v-16h-32zm48 0v16h32v-16h-32zm48 0v16h33v-16h-33zm49 0v16h32v-16h-32zm48 0v16h32v-16h-32zm48 0v16h32v-16h-32zm48 0v16h32v-16h-32zm48 0v16h33v-16h-33zm49 0v16h32v-16h-32zm48 0v16h32v-16h-32zm48 0v16h32v-16h-32zm48 0v16h32v-16h-32zm49 0v16h32v-16h-32zm48 0v16h32v-16h-32zm48 0v16h32v-16h-32zm48 0v16h32v-16h-32zm48 0v16h32v-16h-32zm49 0v16h32v-16h-32zm48 0v16h32v-16h-32z"/></svg>