<svg xmlns="http://www.w3.org/2000/svg" viewBox="0 0 1626 2048"><path d="M32 27h1528l32 33v1564l-32 33H32l-32-33V60l32-33zm1308 212v16h31v1174h16V255l-16-16h-31zM221 255v1174h15V255h-15zm110 538v98q0 299 378 375h158q378-76 378-375v-98q0-303-378-375H709q-378 76-378 375zm457-130q189 35 189 195-55 163-189 163-189-47-189-179 0-139 189-179zm-520 766v16h31v-16h-31zm47 0v16h32v-16h-32zm48 0v16h31v-16h-31zm47 0v16h31v-16h-31zm47 0v16h32v-16h-32zm47 0v16h32v-16h-32zm48 0v16h31v-16h-31zm47 0v16h31v-16h-31zm47 0v16h32v-16h-32zm48 0v16h31v-16h-31zm47 0v16h31v-16h-31zm47 0v16h32v-16h-32zm47 0v16h32v-16h-32zm48 0v16h31v-16h-31zm47 0v16h32v-16h-32zm47 0v16h32v-16h-32zm48 0v16h31v-16h-31zm47 0v16h31v-16h-31zm47 0v16h32v-16h-32zm47 0v16h32v-16h-32zm48 0v16h31v-16h-31zm47 0v16h32v-16h-32zm47 0v16h32v-16h-32z"/></svg>