<svg xmlns="http://www.w3.org/2000/svg" viewBox="0 0 1626 2048"><path d="M29 34h1534l29 29v1565l-29 29H29l-29-29V63l29-29zm1032 190l15 15v14L803 604h-29Q584 458 531 458q-29 0-29 44l57 292h-14q-258 89-258 117v30q0 25 344 87-105 423-129 424h-14v15h172v-15h-29v-14q129-197 158-205h14q15 88 43 88h29q29 0 29-44l14-59 14-14h29l115 102h57l14-44-86-263q244-112 244-132v-29q0-29-258-73l-14-15 157-526h-129zm-875 15v1213h15V239h-15zm1205 0l-14 1213h-14v15h28l15-15V239h-15zM990 546v29l-58 234v15q0 29 129 43v30q-88 0-114 73l28 102h-14l-57-14h-15l-28 29-15-15h-57l-86 88h-15l43-205q-172-37-172-58v-15q101-10 101-44l-29-190 14-15h15q75 88 143 88h29l158-175zm-761 906v15h29v-15h-29zm44 0v15h28v-15h-28zm43 0v15h28v-15h-28zm43 0v15h28v-15h-28zm43 0v15h28v-15h-28zm43 0v15h28v-15h-28zm229 0v15h29v-15h-29zm43 0v15h29v-15h-29zm43 0v15h29v-15h-29zm43 0v15h29v-15h-29zm43 0v15h29v-15h-29zm43 0v15h29v-15h-29zm43 0v15h29v-15h-29zm43 0v15h29v-15h-29zm43 0v15h29v-15h-29zm43 0v15h29v-15h-29zm43 0v15h29v-15h-29zm43 0v15h29v-15h-29zm43 0v15h29v-15h-29zm43 0v15h29v-15h-29zm43 0v15h29v-15h-29zm43 0v15h29v-15h-29z"/></svg>