<svg xmlns="http://www.w3.org/2000/svg" viewBox="0 0 2441 2048"><path d="M511 0q45 158 68 158h35q25 0 51-79l17-20h51q0 119 51 119l85-40q21 178 51 178h51l17-20h17l18 59-18 99q154 19 154 59l-34 138h17q187 30 187 79v138l51 20 17-20h18q85 0 85 138h17l85-79q79 99 119 99l85-99 86 118 85-98h17q28 0 68 118h34q34 0 34-59l17-20h17q39 0 51 99h69l102-79 34 39v356q-244 256-494 256l-17-20h-17l-188 20h-34l-102-20-17 20q-496 0-835-217v-178h-17q-62 0-137 79h-34Q347 1186 0 789l34-572 17-20h17l51 79 17 20h17q44 0 69-178h17q90 99 136 99L511 0zM170 552l17 20 18 20q30 0 51 177h17l119-59 17 59-17 138 17 20h17l119-39 17 19-51 198 17 19 120-19h68l51 39h34q48-67 477-158v-19l-17-20v-20l-102 40h-34L716 414l-102-39q-319 0-444 177zm1091 632v19l188-39 51 20 51-20v-20l-119-20h-35q-125 0-136 60zm307-40v20h256v-20h-256zm290 20v20l17 98-51 40h-188l-68-20-68 20-188-60-17 20h-119l-51-39h-51q-239 65-239 98l51 60 85-60q52 0 52 99h51l68-59 85 79h17l102-119h34q69 40 69 119h51q90-99 136-99l34 99h68l120-99 85 99h34q38-158 102-158l102 39 34-39v-20l-340-118h-17z"/></svg>