<svg xmlns="http://www.w3.org/2000/svg" viewBox="0 0 1747 2048"><path d="M820 7q501 301 903 685v10q-38 38-571 312-66 6-426 207l-20 104 10 31q104-13 104-41 0-37-42-73l83-31 83 52 405-208q179-52 291-124h20l21 20q-639 353-726 353 26 122 103 218v10h-10l-83-51v10l10 52h-10q-62-50-62-208h-11v125q13 176 73 176v21h-10q-69-28-83-62l-11 10h-10q-24 0-42-93l11-135q-62 41-94 41h-10q-92 0-166-186-44-34-114-208-50 0-125-187-52-30-135-218-62 0-145-290-20-3-31-73v-10q0-114 228-114Q612 7 820 7zM384 235q108 166 156 208l498-166v-11L851 100Q384 215 384 235zm-218-62v10q68 68 197 353 360 463 405 581h62l11-52q-34 0-115-145-118-106-259-321-86 0-135-218-52-34-135-187l-31-21z"/></svg>