<svg xmlns="http://www.w3.org/2000/svg" viewBox="0 0 2015 2048"><path d="M355 18h12q47 0 172 92 343 0 343 218v80l-23 206 127 126q29 0 149-137l-23-207q0-240 126-240 17-30 240-46 77-92 149-92h12q67 0 160 115 87 48 138 183 57 30 57 92v46q0 61-46 80l23 69q0 164-367 286-57 0-137 229 149 121 149 184l-35 23-171-12v12q-96 265-207 332h-11q-31 0-57-172-87-126-149-126-161 118-161 287l-11 11h-23q-152-143-207-344h-11l-172 12-23-35v-11q37-65 149-161-66-240-183-240Q23 733 23 626v-46l23-35Q0 484 0 442v-11q0-76 92-161 0-69 194-217 12-35 69-35zm-57 149l92 80h11l34-103-57-34h-23l-57 57zm1261-11q39 91 57 91l80-80q-22-52-46-57-85 14-91 46zM527 202q-74 145-92 229l35 34h23q60-160 126-160 46 0 57 91-103 81-103 126l11 69-149 46-34 34 12 58-23 69h11q117 0 229 332 53 224 126 367h12q0-137 263-241v-12L733 820v-11l379 413 194-12 138 12q-338-350-527-424-149-137-149-184l23-229v-69q0-114-264-114zm688 57l-12 137 35 218q-81 138-149 161v23l114 68 69-68v11l-46 69v23l172 137q88-240 218-240l-35-69 12-58q-38-45-172-68l-11-12v-11l11-69q0-27-92-115v-45l35-35h46q25 6 103 149l57-34-103-229q-139 0-252 57zM183 270v23q0 19 138 103h11l23-57-126-114-46 45zm1467 69l12 57h11q116-65 149-114-22-52-46-57h-11l-115 114zM115 374l-23 34v46q41 56 252 149l34-46-263-183zm1501 194l46 35q252-122 252-172-12-46-46-46-228 141-252 183zM115 603v23q0 56 183 114l23-23-206-114zm1570 114q0 23 34 23 160-59 160-137-166 76-194 114zm-562 596v12q103 118 103 172h12l80-195h-12l-183 11z"/></svg>