<svg xmlns="http://www.w3.org/2000/svg" viewBox="0 0 1616 2048"><path d="M747 48h90q575 0 762 713v91q0 563-613 790l-164 15h-45q-538 0-747-607L0 852Q0 283 613 63l134-15zM120 868q0 467 523 652l119 16h75q448 0 628-547l14-152q0-456-508-652l-164-31q-492 0-673 562l-14 152zm672-592q398 0 553 440l15 152q0 393-448 546H732q-304 0-463-395-30-59-30-167 0-404 433-561l120-15zM359 852v31q0 324 433 425 448-89 448-425v-31q-61-455-448-455-302 0-418 349l-15 106zm448-273q209 0 254 273-36 259-239 259h-45q-203 0-239-259 40-273 269-273z"/></svg>