<svg xmlns="http://www.w3.org/2000/svg" viewBox="0 0 2142 2048"><path d="M816 20h476q8 0 8 17h93q8 0 8 17h76q9 0 9 16h42q8 0 8 17h59q8 0 8 17h42q9 0 9 17h25q8 0 8 17h26q8 0 8 17h25q9 0 9 16h25q8 0 8 17h22q22 34 54 34 46 67 80 67l46 47v21l68 63v21q17 0 17 8v25q16 3 16 13v21q17 2 17 13v38q17 2 17 12v89q17 0 17 8v173q0 8-17 8v59q0 8-17 8v42q0 9-17 9v21q0 13-16 13v21q-25 29-34 29v21l-164 164q-29 0-67 51h-22q0 17-8 17h-25q0 16-9 16h-25q0 17-8 17h-26q0 17-8 17h-42q0 17-8 17h-42q0 8-76 76l-89 92h-21q0 17-8 17h-25q0 11-30 34h-21q0 17-8 17h-42q0 16-9 16h-42q0 17-8 17h-76q0 17-8 17H917q-8 0-8-17h-93q-8 0-8-17h-25q-9 0-9-16h-42q-8 0-8-17h-25q-9 0-9-17h-25q-9 0-9-17h-21l-46-50h-21l-63-64v-21l-51-46v-21q-16 0-16-8v-26h-21q-30-23-30-33h-21q-10 0-13-17h-21q-27-38-58-38-45-67-85-67-21-20-21-42l-67-68v-21q-11 0-34-29v-21q-17 0-17-9v-25q-16 0-16-8v-42q-17 0-17-9v-59q-17 0-17-8V618q0-9 17-9v-55q0-10 17-12v-38q0-11 16-13v-25q0-8 17-8v-26q0-8 17-8v-25l9-9q10 0 12-17h13v-21l113-113h21q0-11 30-34h21q0-10 29-34h21q0-16 9-16h25q0-17 9-17h25q0-17 8-17h25q0-17 9-17h42q0-17 8-17h42q0-17 9-17h59q0-16 8-16h76q0-17 8-17h93q0-17 8-17zM328 256h9l29-30h-8l-30 30zm1465-13l29 29h9l-30-29h-8zM189 378v25q0 8-16 8v21q0 13-17 13v147q17 0 17 51 33 17 33 50 100 101 114 101 12 0 42 34 25 0 38 21 0 13 38 13l4 16h29q0-16 17-16v-13h-25q-9 0-9-17h-25q-8 0-8-17h-25q-9 0-9-16h-21L219 651v-21q-17 0-17-8v-25q-17 0-17-9v-59q-17 0-17-8v-21q0-9 17-9v-75q0-9 17-9v-25l8-9q9 0 9-21 11 0 97-92h-5q-10 0-101 97-8 21-21 21zm1654-101l80 80q0 21 30 38v-17q-12 0-34-38l-67-63h-9zM122 416v4l13-13v-4l-13 13zm1835-9v17q17 0 17 8v26q16 0 16 8v122q0 9-16 9v42q0 8-17 8v21l-131 131h-21q0 10-29 33h-21q0 17-9 17h-25q0 17-8 17h-26q0 17-8 17h-25q0 17-9 17h-42q0 16-16 16v9l16 17q0-13 9-13h38q0-17 8-17h25q0-17 9-17h25q0-17 8-17h26q0-16 8-16h25q0-21 38-21 11-30 46-30 101-100 101-113 0-22 17-22v-21q0-10 17-12v-38q0-11 17-13v-63q-17 0-17-8v-59q-17 0-17-9v-25l-29-21zM105 445v25q0 9-17 9v38q0 12-16 12v38q0 13-17 13v248q17 0 17 8v42q16 0 16 9v42q17 0 17 8v26q11 0 34 29v21q34 14 34 46 95 106 113 106 11 0 59 50 25 0 38 21l13 13h8v-30q-17 0-17-8v-156q0-8 17-8v-59q0-9 17-9v-25q0-8 17-8v-30h-21q-11 0-13-16h-21q-28-38-59-38-14-34-50-34 0-11-106-109 0-27-33-51v-38q-17 0-17-12v-55q-17 0-17-9v-71q0-9 17-9v-33l-13 4zm791 0q0 17-8 17H779q0 17-9 17h-76q0 17-8 17h-59q0 16-8 16h-26q0 17-8 17h-42q0 17-9 17h-25q0 17-8 17h-25q0 17-9 17h-25q0 17-9 17h-25q0 8-67 67 0 17-17 17v12q17 0 17 17h21q29 23 29 34h26q8 0 8 17h25q9 0 9 16h25q8 0 8 17h21q9 0 9 13l63-63h21q0-11 29-34h21q0-17 9-17h25q0-10 30-33h37q0-17 9-17h42q0-17 8-17h76q0-17 9-17h239q9 0 9 17h59q8 0 8 17h42q9 0 9 17h42q8 0 8 16h25q9 0 9 17h21q29 23 29 34h21l131 130v5h29q0-17 9-17h42q0-17 8-17h25q0-17 9-17h25q0-17 9-17h25q0-10 29-33h21q0-21 38-21 0-9 13-9v-4q-8 0-118-109v-5h-21q-30-23-30-33h-25q-8 0-8-17h-25q-9 0-9-17h-25q-9 0-9-17h-42q-8 0-8-17h-42q-9 0-9-16h-58q-9 0-9-17h-76q-8 0-8-17h-126q-9 0-9-17H896zm1162 93v80q0 12-17 12v38q0 13-17 13v21q0 12-17 12v21l-130 131q-27 0-51 34h-21q0 16-8 16h-25q0 17-9 17h-25q0 17-8 17h-26q0 17-8 17h-42q0 17-9 17h-25v29q17 0 17 9v223q0 8-17 8v42q0 9-17 9v12h13q0-17 8-17h26q0-17 8-17h25q0-16 9-16h25q0-17 8-17h26q0-17 8-17h25q0-17 30-17 48-50 59-50 21 0 96-93 0-27 34-42v-21q23-30 34-30v-42q0-8 17-8v-25q0-9 16-9v-42q0-8 17-8V597q-17 0-17-13v-42l-12-4zM896 681q0 17-8 17h-59q0 16-8 16h-42q0 17-9 17h-25q0 17-9 17h-25q0 17-8 17h-25q0 10-30 34h-21q0 8-67 67 0 17-17 17v21q-23 29-34 29v25q0 9-17 9v25q0 9-16 9v58q0 9-17 9v130q17 0 17 9v59q16 0 16 8v25q17 0 17 9v25l51 46v21l38 34q12 0 12 17h21q30 23 30 33h21q29 24 29 34h25q9 0 9 17h42q8 0 8 17h42q9 0 9 17h76q8 0 8 16h181q0-16 8-16h76q0-17 9-17h42q0-17 8-17h25q0-17 9-17h25q0-17 8-17h26q0-17 8-17h25l89-88q17-29 29-29v-21q23-30 34-30v-25q0-9 17-9v-42q0-8 16-8v-93q0-8 17-8v-13q-17 0-17-8v-76q-16 0-16-8v-42q-17 0-17-9v-25q-17 0-17-8v-26l-67-63v-21h-21l-47-50h-21q-29-23-29-34h-25q-9 0-9-17h-42q-8 0-8-17h-26q-8 0-8-16h-76q-8 0-8-17H896zm55 29h139q8 0 8 17h76q9 0 9 17h42q8 0 8 17h25q9 0 9 16h21q29 24 29 34h21l97 97v21q11 0 34 29v21q17 0 17 9v59q16 0 16 8v139q0 9-16 9v58q0 9-17 9v25q0 9-17 9v21l-131 130h-21q0 17-8 17h-25q0 17-9 17h-25q0 17-8 17h-26q0 16-8 16h-76q0 17-8 17H917q-8 0-8-17h-59q-8 0-8-16h-42q-9 0-9-17h-25q-9 0-9-17h-21l-46-51h-21l-46-46v-21q-11 0-34-29v-21q-17 0-17-9v-25q-17 0-17-9v-25q-16 0-16-8v-190q0-8 16-8v-42q0-9 17-9v-25q0-8 17-8v-21l131-131h21q0-17 8-17h25q0-16 9-16h25q0-17 8-17h42q0-17 9-17h76q0-17 8-17zm-4 89q0 16-9 16h-58q0 17-9 17h-42q0 11-29 34h-21q0 10-30 34h-21q0 15-34 33v21q-23 30-33 30v25q0 8-17 8v42q0 9-17 9v113q17 0 17 9v42q17 0 17 8v26q17 0 17 8v25q8 0 67 68 17 0 17 16h25q8 0 8 17h26q8 0 8 17h25q9 0 9 17h42q8 0 8 17h198q0-17 8-17h42q0-17 9-17h42q0-17 8-17h26l46-50h21q0-17 17-17v-21q23-30 33-30v-25q0-8 17-8v-25q0-9 17-9v-59q0-8 17-8v-46q-17 0-17-9v-59q-17 0-17-8v-25q-17 0-17-9v-25q-8 0-75-76-26-13-26-25h-25q-8 0-8-17h-25q-9 0-9-17h-25q-9 0-9-17h-58q-9 0-9-16H947z"/></svg>