<svg xmlns="http://www.w3.org/2000/svg" viewBox="0 0 1815 2048"><path d="M374 20h167l555-13 77 13 77-13q104 13 104 103l64 39h13q-22 111-464 567l-13 13h-52q-98-77-180-77h-39q-154 0-154 90l-78 386h-13q-81 0-142-412l26-193H26L0 497v-90q0-26 39-26l361-13v-26H26L0 316v-90l26-26h490l38-38H335q-51-26-51-78 18-64 90-64zm-39 77l13 13h941V71H361l-26 26zm1328 26q116 103 116 425l13 78q-199 24-632 296-156 84-515 464l-52 13v39q0 219-64 219h-26q-48 0-103-258 167-346 167-438 0-232 78-232l51-13q155 30 155 103 202 0 503-425 215-271 309-271zm-658 129H52l-26 26v13h1031l26-26-13-13v-13l-65 13zM206 432H52l-26 26 13 13h747l26-26-26-26-580 13zm1483 297l13 39q0 418-490 644l-155 26H954l-181-26v-26q375-465 916-657z"/></svg>