<svg xmlns="http://www.w3.org/2000/svg" viewBox="0 0 1627 2048"><path d="M1018 0h97l21 30q24 0 29 26l13-4 13 17v4l-4 5v4h4l12-4 9 8-4 22 29 30-4 30q22 0 34 43 21 0 21 22v13l4-4h4q8 0 26 38l-9 9 13 13v9l-72 77q0 9-25 9 0 23-26 35l-21-5q-28 52-80 52l-38-9q-23 9-59 9-30 0-30-30l-4-5h-4l-4 5q-71-87-110-87-83 17-182 126l-50 25-13-4-13 4v-4l-4-47 4-18-8-30 4-17-12 9-5-5v-4h5q-43-58-43-69l-12 4q-25-34-34-34l-21 4q0-13-68-17v-9h-93q0 17-34 17h-4l-8-25-4 4h-13q0-15 21-39l-4-17 4-5h4l21 5q0-15 59-61l9 9q13 0 13-17l38-22v9h8l-8-13 38-13 17 4q12 0 12-17 32-4 47-17h4l13 8h4q15-18 55-21v4l55-9 130 18v4l55 4 47-4q0-13 21-13l42-34 4 4h5l29-17 4 4 26-26zm42 69q0 13-72 22l-38 30-21-4q0 15-30 34l-8-9h-4l-9 9-25-9-211-13q-131 10-131 26l-8-8h-9q0 14-51 30-33 22-33 34l59 18v8l29-4q5 13 26 13h8l21-13 9 9h8q12-20 59-35l9 9h12q13-22 38-22h85q-5 30-30 30v-13h-4l-51 5 5 4v4l4-4h8l17 17-59 13-8-8q-10 0-26 26-34 2-38 17v17q17 19 17 30l-4 13 4-4h13q12 86 29 86h5l25-34 4 4h4q8 0 21-26 55-47 102-65l8 9h9q0-17 33-17h5q24 0 59 26 55-30 55-56l-13-26 4-13-4-5v-4q0-9 34-34l21 4 4-13-4-4v-5q0-14 42-43l13 13h4q8 0 8-13h9l21 22-8 13v17h4l4-4h4v4l-46 52v4l12 13h9l17-13 12 4-4-4v-4q55-32 55-52l-8-26 4-4q-17 0-17-18-36-47-63-47l-5-13h-29zm63 95h4v9h-4v-9zm-726 39v8h8v-8h-8zm823 65v17l13 13h9l4-18-13-12v-5l-13 5zm140-5l12 9h9v-9h4q72 65 72 91l34 43-5 17q0 13 17 13l13 26-4 22q20 0 29 60l-4 13q30 30 30 104l-5 13 9 21-9 9v4l9 9q-8 0-13 99h-4l4 4-8 78q0 31 34 78l16 43h-8v4q17 0 17 13l13 56-5 4v5q0 13 13 13v8l-13 18 9 8-21 43-5-4h-8l4 22-63 60-25-4q-6 19-26 30l-25-4q-1 11-55 60l-17-4v4l4 13h-4q-15 0-38 17l-13-8-21 4q-91-84-93-95l5-22-5 5h-8l-17-35 4-17-4 4h-13q0-15-17-43l9-9v-8l-13-4 4-22v-4q0-59-12-74 0-10 110-121 0-15 17-25l-5-22v-17q-14 0-17-31l-38-47 5-13h-5l-12 4-9-13 4-12q-29-3-29-18l4-4v-4q0-13-17-13l-34-43v-35l9-9 8 9 13-4-4-5v-8h4q118 0 118-39h26v-4l-5-13q43-38 43-65 17-15 17-26l-5-4h-4l13-121-13-30h4l-4-5v-4q13-17 13-39zM274 306h13l59 56 30 39q18 0 29 31l-4 17v4q51 31 51 78l-4 39v13l8 30-8 8 8 9q-13 46-38 65h-4l-13-5v5l4 13q-9 8-29 8v5l4 13q-18 0-38 56v17q14 52 30 52l-5 4v9l114 129-8 9q0 13 13 13l4 4v9q0 8-21 8l-4 22h-17q-62 0-85 17l-17-4h-4l4 4v4l-50 44 4 21q-31 0-38 134l4 108-13 17h-38l-8-9 4-13h-4l-13 5-8-13 4-22q-13 0-46-43-10 0-13-21l8-9v-4l-33-31 4-21v-5q-16 0-30-56l-4-4 8-9v-8q-15 0-29-61l8-8q-17-37-17-74v-21q0-35 17-78l-8-8q8 0 13-117l-13-26 4-17v-4l-13 8Q14 692 0 608v-60l8-26-4-13q0-10 38-39v-13l-4-4 4-4 13 4q17-6 17-13l-4-4q26-26 38-26v9h8v-5l-4-13h4l34-13 21 5-9-13q25 0 72-61l21 5 21-18zm879 13v13h4v-13h-4zm-110 9q0 17 25 39 0 28 38 43l9-9q-4-25-26-39 0-12-42-34h-4zm118 4v9l17 17h9v-13q0-7-26-13zm279 5v4h8v-4h-8zM241 406v13l8 13q25 0 25-31v-4q0-9-12-9-19 9-21 18zm1178 13l-13 51 4 26v9l-25 39 4 21-4 5h-4q8 21 25 21l13 52-9 9v4q26 11 26 73h4l-8 78h-22l-12-82q12 0 12-9v-8l-12-5-9 9h-4q0-26-17-69h9v-4h-5l-12 4q-10-35-17-35h-9q-20 35-38 35l-4-4v-5q-26 27-67 31 0 12-9 12l-4-4v9l80 82-4 21v5q19 0 30 30l-5 17v4q21 0 21 26v43l-12 57q6 20 29 38l64-8q21 0 21 39 24 35 59 43l4 4v4l-4-4h-4l-5 4v5l5 4h4l8-9 9 13v18q0 24-30 43h-4l-17-13-25 8v-4l-13-30h-21v34l46 65h13q0-12 30-26l17 5q0-14 50-56v-5l-8-8 8-18-4-21 4-18-34-64 5-5h4l-47-56-4-43h4l-4-4 13-130q13 0 13-21l-9-9 9-39v-64l-9-44 4-17q-18 0-25-52v-8l4-5-34-43 5-17v-4q-12 0-26-26l-4-4h-4zM304 483l4 5h4l13-5v-26h-4q-17 9-17 26zM59 561l9 39-5 4v4l13 31-4 17v4q23 4 34 39h-9v9l4-5h13q0 16 17 44l-9 8v4l9 13v35h-9l-4 43 9 9q-13 21-13 164 0 42 13 86l-9 9q27 30 30 64v5l-4 4q25 27 42 65h4l25-65-8-9q18-31 21-60l-21-52 4-26q-21 0-21-56l-8-26 12-4v-48q13-15 13-34 9 0 17 91l4 4v4l-13 13v9h5l21-5q0 59 33 78 70-60 123-60v-18q0-8-25-17l-9-13 4-4v-4q0-8-50-48l-9-17 4-26q-22 0-29-56v-4l8-9v-13l-8-17 13-35v-26q-13-30-51-30l-42 9-47-56 4-13h-4l-4 4h-4q-12 0-42-39l8-8-8-13 16-31 17 5q13-3 17-18 13 0 47 48h17l4-17q-13-17-13-43l-4 4h-4q-10-21-34-39h-9q-33 0-67 43-16 0-34 52zm253 22v4l5 4v4l63-51v-18h-8l-60 57zM190 859h4v8h-4v-8zm-17 8h9v61h-9v-61zm1322 82v5h8v-5h-8zm-85 61v4h9v-4h-9zm-126 86v4h8v-4h-8zm-59 43q6 17 12 17 18 0 43-30v-4l-9-9h-4q-23 0-42 26zm-245 26l12 9 9-9q19 7 29 26v56l13 48h-8v4h8l4-4q0 34 68 73l-9 9h5l12-5q37 22 106 22v8h63v-8q21 0 21-13h9q0 13 17 13l12-5 17 22-4 13 4 13-63 56h-21v4l4 5v4q-9 0-63 43h-5l-8-9q-13 22-38 22l-42 30-13-4-4 4h-4l-5-4h-4l-34 17-8-8h-9q0 21-92 21-140-7-140-21h-12l-60-5-46 30-4 5-13 4v-9h-8l4 5v13q-21 0-38 13l-21-5-9 9h-76q-88 0-88-43-30 0-43-35-11 0-21-21l4-18v-4q-12 0-25-26l4-21q-15 0-71-74v-64q67-88 118-104l34-26 21 4q3-21 21-21v-4l21 4h42l42-4q47 0 72 43 13 0 13 30 28 0 63 43h4q38-4 55-17l26 4q0-22 55-56 12 0 12-17 0-9 30-9l-4-4v-13q21 0 59-39zm304 52l8 8 21-21-4-13q-14 3-25 26zm-410 121h-8l-5-5-29 31-17 4-8-9q-21 22-43 22h-4q-34 0-34-17h-4l-21 4-8-13q-20 4-51 47l8 35v30q0 15-46 22l-30 30 5 21-13 9-9-9q-12 0-12 18h-13l-17-22-4 4h-4q-13-4-13-25 7-48 17-48v4l21-17-4-13h-4l-64 35h-4v-9h-4v4l4 13-17 26 42 61v8l-4 5h4l13-5q11 22 34 22 73 0 118-35 20 0 51-34h8l9 8 21-8 25 4 9-8 25 8h38l67 9h55l26 4q85-9 109-21l9 8h4q16-26 47-26l42-34 4 4h13v-21h-9l-12 8q0-8-51-17 0-13-13-13l-17 4-25-13-51 35-4-4h-4l-55 12-8-8h-9v8l9 13h-9l-4-4-4 4h-43l-63-4v-9l13-12h4v4l-4 4v4h12l60-8v-4q-38-4-38-13v-5l21-4v4q35-5 55-17l8 9h17v-5l-4-4v-4q32-26 50-26v-13q-38-46-38-61l5-4h4q0-13-17-13l-4-4v-17l4-5q-5-21-13-21h-8l-89 82zm469-56l4 4h9l12-13-4-13h-8q-10 0-13 22zm-840-9v9q20 44 71 69v-5l-59-77-12 4zm-68 60l13 13 4-4h4l-13-17-8 8zm-68 48l-4 17q4 17 25 17h5l8-8q0-26-25-26h-9zm663 60v5h9v-5h-9z"/></svg>