<svg xmlns="http://www.w3.org/2000/svg" viewBox="0 0 1313 2048"><path d="M1124 0q180 48 180 137v7q-41 79-144 79-144 129-144 195l21 7v14Q829 741 800 749l-22-7v7l-50 29q0 71-72 101 0 72-65 86-12 94-72 94v14q0 72-65 72v8l14 21-7 29 7 22q-10 29-36 43l7 43q0 37-72 188l-21 79 21 21v15l-14 14-29-21q-50 0-57 50h-15l-7-7q-13 0-14-36l-87-22-29 22q-18 0-21-29l14-29q-14-2-65-72-36 0-36-14 0-18 29-22l-7-29 7-21-36-29 14-15h15l36 8q8-44 57-44 115-136 195-136 5-29 79-65l29 7v-36q27-43 65-43v-29q0-45 65-72 0-59 72-101l7-7v-8l-7-7v-7q8-33 65-58 7-54 21-72l-14-14 230-317 22 14q95-60 137-223l-22-65q22-45 58-79zM728 706l-8 7v7l36 22 8-7q-8-29-36-29zm-72 94v14l36 22v-22l-15-14h-21zm-72 108l36 21 7-7v-7l-22-22h-7l-14 15zm-58 79l-7 7v7l29 22h7v-29l-29-7zm-72 94l-7 7v7l36 22 7-8v-21l-36-7z"/></svg>