<svg xmlns="http://www.w3.org/2000/svg" viewBox="0 0 1368 2048"><path d="M646-7h44q114 131 230 131h11l208-32q58 43 186 273-99 129-99 219l110 329v120q0 286-329 394-222 65-274 153-22 69-54 77h-22q-116-164-153-164-290-103-340-143Q0 1205 0 1022v-44q0-95 109-372v-33q0-85-87-186v-44Q171 92 208 92l186 32h22q123 0 230-131zm22 120Q550 223 438 223h-66l-142-22q0 26-99 153 77 110 77 219v44q0 72-55 153h11l1018-372 22-33v-11l-98-153-154 22h-21q-152 0-263-110zM197 1252q70 49 361 153l110 88q249-186 405-186 164-124 164-296v-22q0-120-33-131-982 367-1007 394z"/></svg>