<svg xmlns="http://www.w3.org/2000/svg" viewBox="0 0 2324 2048"><path d="M170 637q534 45 534 221 80 52 182 52v-13q0-52 26-52h508q26 0 26 65 195 0 195-104 0-107 521-169 143 0 143 117l13 91v170q0 138-156 169 0 36-274 130-234-30-234-156-195 22-195 39l-26 26H899l-39-39-195-26v13q0 118-208 143-252-78-365-169-78 0-78-143v-92q0-260 78-260l78-13zm755 417q0 80 104 130l-13-65 26-26q26 0 26 39h13v-52h39q26 0 39 78h14q0-52 52-78h26v52h13q0-39 26-39l26 26-13 65h13q91-58 91-130 0-83-130-144 0 92-39 92t-39-92l-13 13h-13l-40-13v13q0 79-39 79l-39-39v-26l13-14v-13h-13q-130 61-130 144z"/></svg>