<svg xmlns="http://www.w3.org/2000/svg" viewBox="0 0 1609 2048"><path d="M785 55h32q304 0 545 230-81 74-96 74-198-187-465-187-260 0-470 187-35-19-91-80Q492 55 785 55zM166 370l85 75v5q-69 101-69 134l53 5q230-24 230-53 117-22 341-22 298 0 363 38 0 18 198 37l59-11-75-128v-5l85-75q166 214 166 470v32q0 115-16 128-93-17-112-32 11-51 11-144v-11q-66 0-139-26h-48l-22-6-53 11-27-5q0 37-64 37l-11 16v69q0 16 38 80 0 60 165 198l11-11 48 38 59-102q94 44 96 54-103 264-385 411-167 80-336 80h-32q-427 0-689-417l-32-74q0-11 102-54 33 74 58 102 12-20 43-38l16 11q166-146 166-214 12 0 32-64v-69q0-16-70-27l-5-26-38 5q-37 0-37-11l-27 6h-48q-73 26-139 26v11l11 149q-78 38-112 38h-5L0 872v-32q0-256 166-470zm224 940v5l11 16v6l-38 42v6q210 155 438 155t438-155v-6l-37-42v-6l10-16v-5q-9 0-165-155l-91-37-38 5H684l-33-5q-86 10-229 165-15 27-32 27z"/></svg>