<svg xmlns="http://www.w3.org/2000/svg" viewBox="0 0 2775 2048"><path d="M1899 4q355 0 628 314v14h-14q-287-68-710-95-84 0-109 136h-14l-410-68v-14Q1518 4 1899 4zM14 127l1680 301q23 68 68 68v27Q82 379 82 250L0 141l14-14zm1775 178h55q597 0 901 205l14 68q0 121-260 219v95q0 99 219 232l27 82v41q0 82-314 110h-41q-72 0-300-178v-41q0-27 82-41l-233-150v-28q0-34 137-68l-259-191v-27q0-35 150-55v-14l-219-205v-13l41-41zm-642 205l642 54v14l-13 55v41h-14q-669-32-669-82 32-82 54-82zM574 619q1168 96 1202 123 28 55 68 55v27h-546q-535 0-656-109l-68-82v-14zm2103 150h27v137l-27 109q-123-64-123-150v-14l123-82zm-1584 96h806l-14 95h-27l-779 14-14-14v-68l28-27zm778 136q28 55 68 55v14q-168 95-437 95h-54q-144 0-273-136v-14h13l683-14zm-778 41h13q205 178 383 178 214-14 546-109v82q0 22-451 177v14q178 95 342 95h27q111 0 273-122h41l82 54h96v14q-236 232-574 232-538 0-778-601v-14zm928 219l123 82q-77 95-232 95l-191-41v-13q3-21 300-123z"/></svg>