<svg xmlns="http://www.w3.org/2000/svg" viewBox="0 0 2207 2048"><path d="M983 25q163 12 302 56l492-56q90 10 223 146 235 19 235 212v11q-48 78-190 78l-134-22q-279 21-279 123-172 246-291 246-56-18-56-78l67-157Q950 755 950 908q-67 138-67 313h11q134 59 134 358v56l-22 22h-34q-46-89-190-89l-56-45-89 11-89-45-34 12-11-12-56 12h-78l-23-23v-22q145-198 302-246l-22-268q0-459 302-682v-11q0-19-123-67l-12-56V92q0-47 190-67zm-89 90q134 103 134 134v45Q808 450 760 607q-45 157-45 279v123l23 223q-5 44-157 101l-78 78 168 34 67-56h11q20 0 56 100 108 0 134 23v-11q-18-202-79-202l-33 12-34-45q0-562 436-715 99-56 157-56 56 33 56 78l-34 123h11q78-63 201-279l269-45 212 11 45-11q0-123-213-134-76-123-156-123l-492 56q-137-56-290-56H894zm816 67q67 7 67 33-11 34-67 34h-45l-33-34q40-33 78-33zM34 249h614q26 0 34 56l-34 22H34L0 294v-12l34-33zm33 134h436l45 45-45 44H67q-58 0-67-33v-22q11-34 67-34zM34 528h357l22 23v22l-33 34H34L0 573v-11l34-34z"/></svg>