<svg xmlns="http://www.w3.org/2000/svg" viewBox="0 0 2974 2048"><path d="M1172 68h56q113 0 338 124 368 0 428 259 0 70 79 338l-56 226 22 90q0 137-169 451-209 101-529 101h-45q-327 0-327-248 0-61 34-124-38 0-68-158l34-135h-11q-158 0-158-225l-23-192Q978 68 1172 68zM879 587l22 169v90l23 22h45q26 0 45-101l-11-147q0-208 315-292 0-20 57-23h33v11q-288 179-315 214l-11 45v45q0 17 45 34l574-34 23 34q0 48-620 68-34 43-34 101v90l113 12h225q316 0 316 45v11l-23 23-608-12q-45 96-45 147 0 101 191 101 417 0 417 56l-45 23-496-11q-33 41-33 79v45q0 135 326 135 451 0 451-237 68-122 68-225v-34l-12-67q57-99 57-215 0-86-57-169v-90q0-199-304-236h-113q-169-135-292-135-150 0-316 383l-11 45zM124 868h11l665 496h11l-56-169h22q128 263 248 417v11L0 1567v-23l744-22-327-192h22l260 68-575-530zm2648 68h22v11h-22v-11zm-12 22l-563 485h11l271-68v23l-327 146v12l800 56v22H1836v-22q59 0 260-338 22 0 22-34l11-11h12v22l-45 136h11q625-429 653-429z"/></svg>