<svg xmlns="http://www.w3.org/2000/svg" viewBox="0 0 1650 2048"><path d="M1277-3q63 18 151 127 69 19 151 186 38 0 58 116 0 44-58 116l23 24v58q0 127-418 290-75 142-197 546-84 158-151 197h-23q-31 0-58-174-113-174-442-174l-290 23-23-35v-23q486-523 604-523l162-151-23-162V287q27-174 232-174 105 0 256-105l46-11zm-93 139l47 105 93-93-59-58-81 46zM836 252v209l23 151q-39 120-453 372l-243 243 116-11 232 11q0-22 371-418v12l-290 418v23q135 0 256 221v11h23l197-568q81-128 174-128l-35-139q-36-47-139-47l-35-35 12-58q0-54-93-127v-47l46-46q72 0 140 162 53-22 58-46l-105-232q-175 23-255 69zm441 81q15 59 35 59l139-117v-11l-46-47h-12l-116 116zm-23 221l11 35h24q159-53 255-151 0-60-35-70-231 147-255 186zm58 163q0 23 35 23 135-60 162-105v-35h-11q-180 94-186 117z"/></svg>