<svg xmlns="http://www.w3.org/2000/svg" viewBox="0 0 976 2048"><path d="M454-7h24q63 0 63 64v63l-8 56q284 0 383 247 55 61 55 151 0 67-262 183 71 617 143 789v15q-4 17-40 32-140 0-159-247-34-176-64-222l-56 23q62 380 112 494l-16 16q-86 0-127-263l-32-87h-8v8l40 254q-27 0-56-223-11 0-32-119h-8l-16 311-24 15h-87l-16-15 55-64v-104h-7q-14 128-32 128h-16v-16q24-31 24-72v-48q0-310-72-310-95-81-104-127 49-128 176-128l39-8-8-79 32-24h32q22 0 32 63l-8 48q198 0 271 255v8q-35 48-64 48 64 200 88 390 47 71 119 71l8-8v-15q-72-183-127-685l-8-120q165-64 254-159v-24q0-114-199-318-45-26-223-40l-15-32 15-95q0-48-47-64-80 0-80 64v31l8 48q0 64-191 64-53 0-191 191 0 99 223 247v8l-16 16Q0 497 0 423v-8q104-239 366-239l16-16-8-79V49q29-56 80-56zM199 351h24q80 64 80 191l-24 24q-144-78-144-151l64-64zm8 16l-48 56v8q0 26 112 111h8q0-127-72-175zm541 48q72 40 72 96v31q0 66-88 88h-31q-19 0-24-40 0-175 71-175zm-23 24q-24 61-24 167l8 8h8q63 0 87-88-21-87-79-87zM223 893l-24 32v15q26 45 72 72h8v-8q-16-111-56-111zm295 151q23-8 23-48v-40q-23 0-23 88zm55-56q0 40-48 72v8h8q56 0 56-48l-8-32h-8z"/></svg>