<svg xmlns="http://www.w3.org/2000/svg" viewBox="0 0 1148 2048"><path d="M56 7h1032q52 7 52 51v52q-88 253-206 464-96 56-181 259 95 185 284 438 103 180 103 386H5v-51q46-57 78-259 83-161 283-438V755Q63 359 30 110 5 110 5 85V58Q13 7 56 7zm206 129l-25 51q0 102 206 362l53-26h76q58 0 103 26 119 0 259-388h-78q-123 0-257 26-103-26-181-26l-52 26-104-51zm78 77h413q51 8 51 51v53q-96 154-129 154H496q-47 0-130-154h-26V213zm129 852l-154 231h51q0-28 155-206l-52-25zm206 0l-25 50q0 26 128 129h26v-25q-96-154-129-154z"/></svg>