<svg xmlns="http://www.w3.org/2000/svg" viewBox="0 0 1194 2048"><path d="M546 7h63q181 23 279 91 153 91 221 250 33 50 57 182v120q-18 165-153 341-9 0-17 57-28 8-86 137l-96 108q0 47 51 108l28 142v51q-28 63-307 63-288 0-313-68v-23q25-127 51-193 16 0 34-69v-11q-142-149-142-211-31 0-57-102-76-70-136-233L0 587q21-189 80-278Q184 116 432 30L546 7zM68 593q0 161 103 313v6h17q45-19 45-74 36-66 125-160v-17q0-32-45-85l-51-193q42-62 324-63 299 0 324 68v6q-44 169-68 205l-17 5v17l-11 46v11q112 110 142 217l28 17h6q51-49 85-160 13-11 34-153-21-193-85-285-99-159-301-222 0-11-143-17-188 0-341 131Q68 370 68 593z"/></svg>