<svg xmlns="http://www.w3.org/2000/svg" viewBox="0 0 1527 2048"><path d="M61 23h873l49 49q-18 49-37 49H49L12 84V72l49-49zm1241-12q142 0 197 491v147q0 33-221 62-314 122-725 479-135 184-197 184v50q0 233-184 233h-37Q49 1557 0 1301q197-326 197-627 0-66 172-86 118 15 208 86h25q160-120 479-528 156-135 221-135zM602 772l-12-12-25 25h-24q-73-99-185-99-73 0-73 123-28 265-185 504 63 246 99 246 61-8 61-74v-135q145-111 356-356 542-384 787-406v-12q-13-404-111-455h-12q-62 0-565 602l-111 49zM49 195h688l49 49-49 49H49l-37-37v-24l37-37zm0 172h516q28 0 37 61l-49 37H61l-49-49v-12l37-37z"/></svg>