<svg xmlns="http://www.w3.org/2000/svg" viewBox="0 0 1025 2048"><path d="M402 7h111q161 0 161 101l10 10v10l131-10q141 0 191 211v10q0 97-131 201l41 322q0 187-51 433h-20l30-433q0-161-60-322h-40q-181 0-202-211l-10-10h-10v20q0 78 91 221l-10 10H272l-81-20q121-194 121-332v-40l-71-91V67Q272 7 402 7zm302 161q0 27 91 151 52 164 80 171 91-47 91-121v-40q-42-191-161-191l-101 30zm-90 161l191 171h10q-33-191-131-191h-50l-20 20zM131 601h20l20 20q-54 171-70 171H50l-10-10H30q50-181 101-181zm141 0h60q60 6 60 30v50q0 111-30 111H191l-10-10h-10q0-170 101-181zm191 10h131q60 30 60 161l-30 30h-20q-161 0-161-30V631l20-20zm231 0q91 44 91 161v30h-51q-28 0-70-181l30-10zM70 822q41 20 41 60-10 141-51 141-52 0-60-30v-50q0-121 70-121zm111 10h171l30 30v141l-20 20H262q-111 0-111-30v-81q0-74 30-80zm322 0h101q54 0 70 40v131l-20 20H463l-20-20V862q10-30 60-30zm262 0q60 0 60 141v30l-20 20h-50q-31-10-31-60V862q0-15 41-30zM30 1053h30q41 17 41 71v100q0 31-41 31-60 0-60-182l30-20zm262 0q80 0 80 61l10 110-30 31H241q-90 0-90-71v-100q0-31 141-31zm171 10h191l20 21v50q0 121-40 121H463l-30-31q7-161 30-161zm292 0h30l30 31v20q-10 141-40 141h-41l-20-21q0-171 41-171zM91 1285q36 6 50 171l-30 10q-50 0-81-171l10-10h51zm140 0q151 7 151 30v131q0 24-90 30-121 0-121-101l-10-70 70-20zm353 0q60 10 60 30-7 161-50 161H453l-20-20v-141q0-30 151-30zm140 10h31l20 20q-22 161-91 161l-10-30q20-151 50-151zm-583 211q28 0 50 91h-20q-26 0-50-81l10-10h10zm100 0h111l30 30v101l-20 20h-90q-28-3-61-131l30-20zm212 0h120l21 20v20q-31 111-61 111h-90l-20-20v-71q6-60 30-60zm211 10l20 20q-14 42-50 61h-10v-10q14-71 40-71z"/></svg>