<svg xmlns="http://www.w3.org/2000/svg" viewBox="0 0 1382 2048"><path d="M653-7h42q125 137 253 137l189-42q39 0 190 274v21q-95 98-95 210l95 264 21 147v11q0 303-326 410-306 93-306 221l-10 11h-53q-104-179-190-179 0-16-242-84Q0 1235 0 1004q0-109 116-400v-32q0-64-95-210v-11Q169 104 221 88l127 31h94q105 0 211-126zM379 225l-147-21v10q-95 133-95 158 43 0 84 211L105 941v74q0 219 221 305 337 109 337 179h11q106-116 379-190 190-93 190-284v-53q0-91-106-326v-74q0-110 74-210v-11l-105-147-148 21q-164 0-284-106-114 106-295 106z"/></svg>