<svg xmlns="http://www.w3.org/2000/svg" viewBox="0 0 1994 2048"><path d="M414 14q406 97 584 207 231-85 450-134V75q499 0 499 304v61q0 179-207 450 183 305 183 511-110 256-402 256-201 0-584-183-314 122-560 122l-97-12-97 12Q24 1430 24 1389q-20 0-24-85v-36q0-196 207-451v-12Q37 544 37 343 37 84 414 14zM158 294v61q0 89 134 353h12q244-239 584-438-304-134-438-134l-36 12-85-12q-171 39-171 158zm1315-85l-49-12-316 85q247 166 547 487 63 0 195-378-28-207-304-207l-73 25zM365 781v12q340 403 584 535 233-90 621-450l12-12v-12q-442-488-596-511-221 78-621 438zm560-353h36q141 0 244 182 152 0 182 207v25q0 132-206 206-81 147-207 147h-61q-53 0-195-110-158 0-207-243 0-152 195-244 67-170 219-170zm280 231l-37 158q37 63 37 122v49h12q134-50 134-183-30-146-146-146zM560 817v61q44 158 146 158v-12l-12-97 36-110q-36-62-36-121v-37h-12q-122 68-122 158zM97 1304q0 183 256 183h12q265 0 438-110-140-59-535-475-171 186-171 402zm1558-341q-304 312-560 426h-12v12q333 146 511 146 207 0 207-243v-24q0-117-146-317z"/></svg>