<svg xmlns="http://www.w3.org/2000/svg" viewBox="0 0 667 2048"><path d="M247-7h3q23 20 31 42h90q6 0 10-21 8 0 8-8l3-2h5l8 7-3 14v7q0 10 11 21v237l8 8h26q11 10 21 10h31q12 11 21 11h22q7 10 34 10 0 9 34 14 0 8 18 8l27 28v40q-11 11-11 21v52q-10 12-10 21v53q-11 11-11 21v63q-11 11-11 21v105q-10 11-10 21v127q-11 9-13 36-8 3-8 16v32q-11 11-11 21v297q0 9 11 21v73q0 10 10 21v43q0 9 11 18v24q0 9 10 21v21q0 9 11 18v50l11 13v3l-6 5h-10q-16-9-24-32-26-24-34-47l-3-2h-8v44l-5 5h-21q-84-84-92-84h-16q-18 0-36 37l-45 47h-13q-58-54-58-65l-24-16-2-3h-11q-12 0-42 32-10 0-63 55l-11 8-5-5v-66h-8q0 14-10 24-11 8-11 21l-47 47h-3l-5-5v-21q11-11 11-21v-32q10-11 10-21v-21q11-11 11-21v-24q10-9 10-18v-53q11-11 11-21v-73q10-11 10-21v-255q0-10-10-21v-42q0-10-11-21v-21q0-10-10-19v-97q0-10-11-21V703q0-10-10-21v-84q0-10-11-21v-42q0-10-10-22v-52q0-10-11-21v-61q34-42 74-42 0-10 31-10 0-8 5-8h24q10 0 21-11h32q9 0 21-10h26l8-8V-2l5-5zm21 173v6h34v-6q-8-13-18-13-11 4-16 13zm74 0v6h31l6-6v-10l-14-3h-7l-16 13z"/></svg>