<svg xmlns="http://www.w3.org/2000/svg" viewBox="0 0 1202 2048"><path d="M549 0l42 21h64q21 42 21 64l-21 85q170 276 382 276 85 103 85 170-21 41-21 64 21 41 21 64-60 161-234 276 17 85 43 85-73 127-234 127v64h21l43-21q85 196 85 255v85h-21q-22 0-22-22l-42 22H442q-21 0-21 21-85-32-85-64v-64q25-182 149-212v-43q0-31-85-63l-43 21q-30-1-106-85l43-106Q60 841 60 722l21-42q-21-41-21-64 0-111 127-191h64l43 21q233-196 233-340 0-71 22-106zM187 574v127h22q0-58 42-127h-64zm765 0v63h43v-63h-43zM230 744v42q7 43 42 43h22v-43q0-42-43-42h-21zm680 0v85q42 0 42-43v-42h-42z"/></svg>