<svg xmlns="http://www.w3.org/2000/svg" viewBox="0 0 3399 2048"><path d="M0 15q1851 312 2102 377l148 148v17Q164 381 164 245 72 180 0 47V15zm2217 246q1150 75 1150 345 0 114-312 279v99q0 106 263 279l33 98q0 162-395 181h-32q-73 0-362-213v-50q0-37 82-49v-33q-64 0-262-148v-33q0-49 164-82v-33q-201-86-312-197v-32q0-40 197-83l-279-246v-33l65-49zm197 131v33q48 0 214 181v16q0 50-164 82l279 197v50q0 41-148 82v16q279 126 279 165v32l-16 17q0 33-82 33l-17 16v17l181 98 279-49v-33q-295-180-295-411 0-213 180-213 148-101 148-132-205-131-838-197zM673 606l1511 148 148 131v16l-246 17h-329q-854 0-985-164l-99-115v-33zm1084 476h542l165 99v33q-403 115-657 115-411-103-411-214v-16l361-17zm740 312q178 87 180 115v33q-210 110-312 115-158-16-328-82v-33l460-148z"/></svg>