<svg xmlns="http://www.w3.org/2000/svg" viewBox="0 0 1771 2048"><path d="M870-35h10l31 19h235q293 118 307 164 143 88 205 221 34 14 92 173 31 0 31 19v510l-123 221q-82 131-205 211v19q-50 0-71 68h-10l-21-20q-128 87-276 87H696q-307 0-583-356Q0 1116 0 917V782q0-301 154-452 0-25 102-134 33 0 82-58Q438 61 686-16h153l31-19zM409 167v77l82 67v10l-20 19h-10q-21 0-21-39h-31v68h133V263q-45 0-81-58l10-9h20q21 0 21 38h30v-67H409zm164 0l41 48v106l-41 48h113l-41-48v-29q0-19 102-19l21-29v-48l-31-29H573zm225 0l41 48v106l-41 48q82 0 82 19-20 0-20 96l-10 10H665l-30-19H502l-31 19h-31l-51-39h-41v250l20 29v67q-20 20-20 87-17 0-31 67-117 96-174 96v39q0 15 72 48h51q143-102 143-212l11-86 20-19V561l41-38h10l31 19h133l21 19v29l-21 19H532v48h103l20 19v29q-57 68-153 68l-31 9 20 48h62l112-77q31 26 31 77h20q25 0 41-77h41l31 20h21v-49q-82 0-82-38v-10l20-19h103v-19l-31-29h-92l-41-38v-10q0-19 82-19l20-19h72l30 19h31l31-19 20 19h31l31-19h10l41 38v29l-21 19H983v48h122l21 19v10q-36 49-102 77h-82v48h82q55-21 61-58h20q23 0 41 77 25 0 41-77h41l113 77h112l31-29v-19h-82q-190-67-204-115l10-10h153v-48h-163l-21-19v-29l41-38h10l31 19h123v-48l-51-19-21 19h-215l-30-19-21 19h-72q-35 0-51-106l-10-10 10-9h72v-68h-10q0 39-62 39l-20 19-10-9v-20q0-19 40-19v-86q-40 0-40-20v-9l20-20h10l51 39h21v-48H798zm246 0l41 48v106l-41 48h195v-48h-21l-72 38-30-38V215l41-48h-113zm225 0l41 48v106l-41 48h195v-48h-21l-71 38-31-38V215l41-48h-113zm-604 9h11l40 39v10l-40 38h-11l-20-19v-48l20-20zm174 625q0 43-41 77H594v250l30 29h92l21 19v10q-98 106-195 106l-10 9H420l-31 29v58h123l133-39q143-87 143-125l62-67h51l41 39v48l-21 28q21 0 21 77l30 20h154l31 19h276l51-48v-58h-41l-30 19h-400l-41-38 21-19-21-20v-28l41-39h133l21 19v10l-21 29v19h256v-38l-30-29h-21q0 57-20 57h-92l-21-19v-9q37-58 82-58v-48l-72 38h-10l-20-19V878H911l-20-19v-58h-52zM706 926h133l21 20v28l-21 20h-92l-31 19q0-19-40-19l-11-10v-19l41-39zm399 0l21 20v48l-21 19h-10l-30-19H952l-21-20q21 0 21-38l10-10h143zm-399 135h133l21 19v29l-21 19H706l-41-38 41-29zm246 0h153l21 19v29l-21 19H972l-41-38v-10l21-19z"/></svg>