<svg xmlns:dc="http://purl.org/dc/elements/1.1/" xmlns:cc="http://creativecommons.org/ns#" xmlns:rdf="http://www.w3.org/1999/02/22-rdf-syntax-ns#" xmlns:svg="http://www.w3.org/2000/svg" xmlns="http://www.w3.org/2000/svg" xmlns:sodipodi="http://sodipodi.sourceforge.net/DTD/sodipodi-0.dtd" xmlns:inkscape="http://www.inkscape.org/namespaces/inkscape" viewBox="0 0 100 125" version="1.1" x="0px" y="0px"><g transform="translate(0,-952.36216)"><path style="" d="m 49.97516,963.81056 c -5.95925,0 -10.80607,4.8467 -10.80607,10.806 0.003,5.9965 4.84843,10.8055 10.80607,10.8055 5.99646,0 10.85631,-4.809 10.85631,-10.8055 0,-5.9593 -4.85985,-10.806 -10.85631,-10.806 z m -32.27428,4.2772 c -5.95924,0 -10.80608,4.8463 -10.80608,10.8055 0.003,5.9965 4.84846,10.8061 10.80608,10.8061 5.99645,0 10.8563,-4.8096 10.8563,-10.8061 0,-5.9592 -4.85986,-10.8055 -10.8563,-10.8055 z m 64.54801,0 c -5.95923,0 -10.80607,4.8463 -10.80607,10.8055 0.003,5.9965 4.84846,10.8061 10.80607,10.8061 5.99645,0 10.85631,-4.8096 10.85631,-10.8061 0,-5.9592 -4.85986,-10.8055 -10.85631,-10.8055 z M 50,988.65406 c -7.05014,0 -12.72568,6.5421 -12.72571,14.66854 l 0,7.2123 c 4.05204,-0.3789 8.31542,-0.5848 12.72627,-0.5848 4.41071,0 8.67334,0.2059 12.72515,0.5848 l 0,-7.2123 c 0,-8.12644 -5.67557,-14.66854 -12.72571,-14.66854 z m -32.27429,4.2773 C 10.6756,992.93136 5,999.47346 5,1007.5998 l 0,13.267 c 0.40352,-0.3971 0.842,-0.7811 1.31118,-1.1508 2.55123,-2.0106 6.0836,-3.7216 10.39065,-5.1573 3.97861,-1.3262 8.62791,-2.4061 13.74959,-3.189 l 0,-3.7699 c 0,-8.12634 -5.67557,-14.66844 -12.72571,-14.66844 z m 64.54801,0 c -7.05013,0 -12.72514,6.5421 -12.72514,14.66844 l 0,3.7699 c 5.12162,0.7829 9.77146,1.8628 13.75016,3.189 4.30701,1.4357 7.83998,3.1467 10.39121,5.1573 0.46874,0.3694 0.90632,0.7529 1.30949,1.1497 l 0,-13.2659 c 0,-8.12634 -5.67561,-14.66844 -12.72572,-14.66844 z M 50.00056,1012.84 c -12.6952,0 -24.18922,1.7288 -32.38492,4.4608 -4.09784,1.3659 -7.36656,2.991 -9.51577,4.6848 -2.14925,1.6937 -3.09931,3.3395 -3.09931,4.8913 0,1.5519 0.95006,3.1976 3.09931,4.8914 2.14921,1.6938 5.41793,3.3189 9.51577,4.6848 8.1957,2.7319 19.68972,4.4607 32.38492,4.4607 12.69524,0 24.18867,-1.7288 32.38436,-4.4607 4.09782,-1.3659 7.36653,-2.991 9.51578,-4.6848 2.14924,-1.6938 3.0993,-3.3395 3.0993,-4.8914 3e-5,-1.5518 -0.95006,-3.1976 -3.0993,-4.8913 -2.14925,-1.6938 -5.41796,-3.3189 -9.51578,-4.6848 -8.19569,-2.732 -19.68912,-4.4608 -32.38436,-4.4608 z m -15.23122,3.8506 30.46132,0 11.15828,16.3725 0.3635,0.5328 -53.50488,0 11.52178,-16.9053 z m 5.39485,0.3556 0,6e-4 -0.49388,1.1396 -5.7e-4,5e-4 2.75952,-5e-4 0.42558,0 1.09161,0 0.092,0 0,5e-4 1.72886,0 0.20263,-1.1401 1.12717,0 -0.14562,1.1401 0.27205,0 0,-5e-4 1.18418,0 0,5e-4 3.18454,0 1.18474,0 0.27149,0 -0.14562,-1.1401 1.12717,0 0.20263,1.1401 1.72886,0 1.18418,0 3.18454,0 -0.49445,-1.1407 -3.03213,0 -2.16743,0 -1.99301,0 -1.12717,0 -0.9522,0 -1.12774,6e-4 0,-6e-4 -0.95276,0 0,6e-4 -1.12718,0 0,-6e-4 -1.99301,0 0,6e-4 -1.12717,0 -1.03912,0 0,-6e-4 -3.0327,0 z m -5.48799,1.5465 -0.73545,1.1639 -0.26867,0.425 -0.30197,0.4781 -0.16651,0.2636 3.9595,0 0.34091,-0.705 0.0175,-0.037 0.20545,-0.425 0.56275,-1.1639 -3.61238,0 -10e-4,0 z m 4.81631,0 -4.44039,10.2496 29.89407,0 -4.44039,-10.2496 -21.01329,0 z m 22.21722,0 0.56218,1.1639 0.20545,0.425 0.23029,0.4781 0.12756,0.2636 3.9595,0 -0.16707,-0.2642 -0.30141,-0.4775 -1.00413,-1.5889 -3.61237,0 z m -11.71029,1.3186 8.05559,2.9124 -8.05559,3.6609 -8.05616,-3.6609 8.05616,-2.9124 z m -17.11531,1.5172 -0.0756,0.1196 -0.3347,0.5295 -0.29295,0.4639 -0.3601,0.5695 -0.31552,0.4996 -0.38833,0.6141 -0.0914,0.145 4.47257,0 0.07,-0.145 0.29689,-0.6141 0.24101,-0.4996 0.49953,-1.0334 0.25625,-0.53 0.0576,-0.1191 -4.03513,0 z m 30.19492,0 0.0576,0.1191 0.25569,0.53 0.22408,0.4639 0.27488,0.5695 0.24101,0.4996 0.29689,0.6141 0.07,0.145 4.47257,0 -0.47921,-0.7591 -0.31551,-0.4996 -0.36011,-0.5695 -0.62765,-0.9934 -0.0756,-0.1196 -4.03456,0 z m -32.46225,3.5875 -0.2269,0.3595 -0.43631,0.6909 -0.4205,0.6655 -1.33376,2.1104 5.13917,0 1.01936,-2.1104 0.32117,-0.6655 0.0265,-0.055 0.48034,-0.9957 -4.56909,0 z m 34.19449,0 0.17328,0.3595 0.33415,0.6909 0.32116,0.6655 1.01936,2.1104 5.13917,0 -1.33376,-2.1104 -0.4205,-0.6655 -0.43687,-0.6909 -0.2269,-0.3595 -4.56909,0 z m -30.13114,4.6825 -1.23272,2.8448 0,5e-4 5.10304,0 1.8965,0 2.76967,0 0.50517,-2.8447 1.75595,0 -0.36406,2.8447 0.43574,0 1.89706,0 5.10305,0 1.89649,0 0.43631,0 -0.3635,-2.8447 1.75539,0 0.50517,2.8447 2.76967,0 1.89706,0 5.10304,0 -1.23272,-2.8453 -8.09792,0 -4.85864,0 -1.48334,0 -4.99523,0 -3.10325,0 -8.09736,0 -5.7e-4,0 z" fill="#000000"/></g><text x="0" y="115" fill="#000000" font-size="5px" font-weight="bold" font-family="'Helvetica Neue', Helvetica, Arial-Unicode, Arial, Sans-serif">Created by Andrew Doane</text><text x="0" y="120" fill="#000000" font-size="5px" font-weight="bold" font-family="'Helvetica Neue', Helvetica, Arial-Unicode, Arial, Sans-serif">from the Noun Project</text></svg>