<svg xmlns="http://www.w3.org/2000/svg" xmlns:xlink="http://www.w3.org/1999/xlink" version="1.1" x="0px" y="0px" viewBox="0 0 100 125" enable-background="new 0 0 100 100" xml:space="preserve"><polygon points="28.248,64.714 20.658,58.171 21.096,68.855 43.622,87.57 43.676,57.198 "/><polygon points="56.168,72.338 45.629,58.939 45.578,88.175 82.348,72.562 82.861,60.646 "/><polygon points="18.69,34.095 44.659,54.54 28.548,62.391 5,42.083 "/><polygon points="84.754,39.459 44.659,54.54 56.768,69.936 92.766,54.178 "/><polygon points="57.125,47.715 57.125,25.483 55.907,24.764 55.125,25.004 55.125,48.467 "/><polygon points="18.69,34.095 11.078,22.144 47.762,11.824 56.164,22.594 "/><polygon points="84.754,39.459 56.164,22.594 66.572,12.006 95,26.93 "/><text x="0" y="115" fill="#000000" font-size="5px" font-weight="bold" font-family="'Helvetica Neue', Helvetica, Arial-Unicode, Arial, Sans-serif">Created by Ben Avery</text><text x="0" y="120" fill="#000000" font-size="5px" font-weight="bold" font-family="'Helvetica Neue', Helvetica, Arial-Unicode, Arial, Sans-serif">from the Noun Project</text></svg>